PathFileType	4	(X/Y/Z)	/Users/itak/Documents/Research/Walk-IL/dataset/trc/00309_00010.trc
DataRate	CameraRate	NumFrames	NumMarkers	Units	OrigDataRate	OrigDataStartFrame	OrigNumFrames
100.000000	100.000000	4	53	mm	100.000000	135	542
Frame#	Time	RPSI			LPSI			L3			STRN			T10			C7			CLAV			RBAK			LBAK			LSHO			LUPA			LAEL			LAOL			LWTS			LWPS			LFRA			LIFD			LHPS			LHTS			RSHO			RUPA			RAEL			RAOL			RWTS			RWPS			RFRA			RIFD			RHTS			RHPS			RBHD			LFHD			RFHD			LBHD			LHIP			RHIP			RASI			LASI			LKNE			LTHI			LANK			LTIP			LTOE			LMT1			LMT5			LHEE			RKNE			RTHI			RANK			RTIP			RTOE			RMT1			RMT5			RHEE			
		X1	Y1	Z1	X2	Y2	Z2	X3	Y3	Z3	X4	Y4	Z4	X5	Y5	Z5	X6	Y6	Z6	X7	Y7	Z7	X8	Y8	Z8	X9	Y9	Z9	X10	Y10	Z10	X11	Y11	Z11	X12	Y12	Z12	X13	Y13	Z13	X14	Y14	Z14	X15	Y15	Z15	X16	Y16	Z16	X17	Y17	Z17	X18	Y18	Z18	X19	Y19	Z19	X20	Y20	Z20	X21	Y21	Z21	X22	Y22	Z22	X23	Y23	Z23	X24	Y24	Z24	X25	Y25	Z25	X26	Y26	Z26	X27	Y27	Z27	X28	Y28	Z28	X29	Y29	Z29	X30	Y30	Z30	X31	Y31	Z31	X32	Y32	Z32	X33	Y33	Z33	X34	Y34	Z34	X35	Y35	Z35	X36	Y36	Z36	X37	Y37	Z37	X38	Y38	Z38	X39	Y39	Z39	X40	Y40	Z40	X41	Y41	Z41	X42	Y42	Z42	X43	Y43	Z43	X44	Y44	Z44	X45	Y45	Z45	X46	Y46	Z46	X47	Y47	Z47	X48	Y48	Z48	X49	Y49	Z49	X50	Y50	Z50	X51	Y51	Z51	X52	Y52	Z52	X53	Y53	Z53	

136	1.35	-1155.224975585938	1009.133056640625	-618.3936157226562	-1152.001342773438	1002.633361816406	-793.5531616210938	-1131.740234375	1071.765747070312	-708.3431396484375	-875.0963134765625	1234.614135742188	-717.3822021484375	-1141.237060546875	1186.539916992188	-712.9296264648438	-1082.06640625	1429.152465820312	-737.4542846679688	-932.1344604492188	1338.101318359375	-725.5926513671875	-1142.486450195312	1297.65283203125	-657.464599609375	-1099.344360351562	1388.565673828125	-839.7042236328125	-1009.766967773438	1388.763061523438	-892.927734375	-1043.123779296875	1270.250244140625	-961.4238891601562	-1043.758911132812	1066.232788085938	-971.3861694335938	-1100.752075195312	1056.318237304688	-906.5892333984375	-970.8079223632812	841.158447265625	-922.7310791015625	-1008.331115722656	830.12109375	-983.8694458007812	-1033.039184570312	961.3215942382812	-978.822021484375	-975.0802612304688	656.7415771484375	-922.98828125	-1007.780578613281	741.516357421875	-980.50341796875	-953.2892456054688	741.6216430664062	-942.5013427734375	-1019.913330078125	1408.860473632812	-577.1463623046875	-1031.735595703125	1352.331420898438	-509.8081970214844	-1059.493408203125	1090.460815429688	-449.0319213867188	-1088.029052734375	1080.412963867188	-539.5394897460938	-960.4365234375	864.5650024414062	-485.4585876464844	-1006.917419433594	862.833984375	-415.4107971191406	-1037.814697265625	1023.083740234375	-433.1011657714844	-955.308349609375	678.5333862304688	-478.5773010253906	-932.1525268554688	749.4757080078125	-461.9527893066406	-984.60009765625	751.3015747070312	-411.9010009765625	-1039.331420898438	1588.916625976562	-665.9093017578125	-853.3137817382812	1606.906494140625	-767.2924194335938	-863.7625732421875	1601.614990234375	-675.4429931640625	-1023.401794433594	1586.902221679688	-811.1558837890625	-1085.652221679688	948.8430786132812	-888.3944091796875	-1058.601440429688	951.2927856445312	-514.1852416992188	-938.9488525390625	946.832275390625	-583.7631225585938	-949.6630249023438	944.3707885742188	-836.0059204101562	-1069.928344726562	479.609619140625	-839.2311401367188	-1058.737548828125	620.4694213867188	-865.3768920898438	-1186.162719726562	49.15664291381836	-807.412841796875	-1133.857299804688	259.4198303222656	-832.9158935546875	-981.1143188476562	38.52685165405273	-739.1741333007812	-1053.743286132812	31.18767356872559	-702.65771484375	-1061.729370117188	44.54751205444336	-814.2083129882812	-1234.786254882812	44.64699554443359	-749.2025756835938	-1051.61376953125	475.0804748535156	-535.5943603515625	-1009.95654296875	736.6453857421875	-512.9317626953125	-1194.043579101562	49.69775009155273	-545.3538818359375	-1063.720703125	351.3198547363281	-543.56201171875	-998.2289428710938	44.61466217041016	-587.8468627929688	-1054.320556640625	39.42635726928711	-630.8869018554688	-1091.106811523438	38.73642730712891	-518.7784423828125	-1245.35302734375	42.81985092163086	-595.2645874023438	
137	1.36	-1154.431274414062	1008.270935058594	-618.8150634765625	-1151.198364257812	1002.246398925781	-793.9843139648438	-1130.79150390625	1071.608764648438	-708.8502807617188	-873.6240844726562	1233.917846679688	-717.9299926757812	-1139.949340820312	1186.595092773438	-713.5716552734375	-1080.026489257812	1428.97900390625	-738.3191528320312	-930.4337768554688	1337.500854492188	-726.23193359375	-1140.904052734375	1297.740234375	-658.2537841796875	-1097.353515625	1388.34423828125	-840.5560913085938	-1007.794494628906	1388.176391601562	-893.6974487304688	-1041.16748046875	1269.66943359375	-962.1903076171875	-1041.9833984375	1065.619384765625	-972.1694946289062	-1099.008422851562	1055.800537109375	-907.4254150390625	-969.5767822265625	840.3215942382812	-923.5660400390625	-1007.242248535156	829.4273681640625	-984.6839599609375	-1031.463623046875	960.6845092773438	-979.5635375976562	-974.3494873046875	655.9151000976562	-923.9030151367188	-1006.947448730469	740.8106689453125	-981.3531494140625	-952.3206176757812	740.8145141601562	-943.4297485351562	-1018.051391601562	1408.678100585938	-577.9195556640625	-1030.081665039062	1352.233520507812	-510.5399780273438	-1058.812866210938	1090.50146484375	-449.6171569824219	-1087.1572265625	1080.417846679688	-540.1522216796875	-959.9895629882812	864.4005737304688	-485.6226806640625	-1006.704711914062	862.8329467773438	-415.6333618164062	-1037.34423828125	1023.097351074219	-433.5555725097656	-954.9755249023438	678.444091796875	-478.5142822265625	-932.1234741210938	749.4007568359375	-461.8887634277344	-984.5281982421875	751.273193359375	-411.9800720214844	-1037.433715820312	1588.627807617188	-667.0083618164062	-851.1079711914062	1606.382446289062	-767.8521118164062	-861.8444213867188	1601.23095703125	-676.0100708007812	-1021.069885253906	1586.383056640625	-812.2229614257812	-1084.9736328125	948.6956787109375	-889.0231323242188	-1057.60400390625	950.4531860351562	-514.7833862304688	-938.0588989257812	946.3375244140625	-584.5484619140625	-948.8621215820312	944.2039794921875	-836.7444458007812	-1069.029296875	479.4603576660156	-839.814208984375	-1057.779052734375	620.2886352539062	-865.95361328125	-1186.206420898438	49.12440872192383	-807.47216796875	-1133.360961914062	259.2538146972656	-833.2117309570312	-981.1078491210938	38.55561447143555	-739.1522827148438	-1053.603149414062	31.29515647888184	-702.66845703125	-1061.72216796875	44.50477600097656	-814.2340698242188	-1234.781127929688	44.61971282958984	-749.260498046875	-1047.290649414062	474.3820495605469	-536.1522216796875	-1007.594604492188	736.0765991210938	-513.7098388671875	-1193.894775390625	50.24351119995117	-545.39501953125	-1060.153686523438	350.5160522460938	-543.8497924804688	-998.1317138671875	44.67341613769531	-587.8236694335938	-1054.28125	39.4712028503418	-630.88037109375	-1091.022583007812	38.80964660644531	-518.7667846679688	-1245.249877929688	43.85742950439453	-595.34765625	
138	1.37	-1153.640014648438	1007.354797363281	-619.21435546875	-1150.388916015625	1001.831176757812	-794.4017333984375	-1129.862426757812	1071.43896484375	-709.3375244140625	-872.1341552734375	1233.17724609375	-718.4368896484375	-1138.66552734375	1186.651123046875	-714.2015991210938	-1077.9189453125	1428.797973632812	-739.1839599609375	-928.717041015625	1336.850708007812	-726.849609375	-1139.29443359375	1297.834228515625	-659.03857421875	-1095.282958984375	1388.098876953125	-841.4036254882812	-1005.762023925781	1387.53955078125	-894.4588012695312	-1039.142822265625	1269.031860351562	-962.946044921875	-1040.093872070312	1064.946044921875	-972.9511108398438	-1097.1748046875	1055.221069335938	-908.2726440429688	-968.2570190429688	839.4198608398438	-924.3936157226562	-1006.075988769531	828.6837158203125	-985.500244140625	-1029.812377929688	959.9910278320312	-980.30859375	-973.53515625	655.0386962890625	-924.822021484375	-1005.987426757812	740.0488891601562	-982.2001953125	-951.2129516601562	739.957763671875	-944.3662719726562	-1016.138122558594	1408.49267578125	-578.6817016601562	-1028.4013671875	1352.135131835938	-511.2568054199219	-1058.101684570312	1090.5380859375	-450.1699829101562	-1086.2900390625	1080.419189453125	-540.7410278320312	-959.5695190429688	864.213623046875	-485.7871398925781	-1006.518859863281	862.8251342773438	-415.832763671875	-1036.86474609375	1023.108032226562	-433.9833679199219	-954.6962890625	678.3720703125	-478.4179992675781	-932.0834350585938	749.3162841796875	-461.7740173339844	-984.4825439453125	751.2365112304688	-412.0246887207031	-1035.471435546875	1588.3310546875	-668.1146240234375	-848.8154907226562	1605.81201171875	-768.3782958984375	-859.8524780273438	1600.801513671875	-676.5187377929688	-1018.64501953125	1585.86474609375	-813.2896728515625	-1084.2783203125	948.536865234375	-889.638916015625	-1056.649047851562	949.565673828125	-515.370361328125	-937.1738891601562	945.8104858398438	-585.2918701171875	-948.0403442382812	944.0391845703125	-837.4608764648438	-1068.09814453125	479.2938842773438	-840.3985595703125	-1056.799926757812	620.0996704101562	-866.5322265625	-1186.24951171875	49.09175872802734	-807.5275268554688	-1132.8369140625	259.0703430175781	-833.5010986328125	-981.0985717773438	38.58455276489258	-739.1283569335938	-1053.44775390625	31.41111755371094	-702.6802978515625	-1061.714111328125	44.46231842041016	-814.2607421875	-1234.78271484375	44.59769439697266	-749.313232421875	-1042.607299804688	473.704833984375	-536.72119140625	-1005.137390136719	735.504150390625	-514.5060424804688	-1193.716430664062	50.97251510620117	-545.437255859375	-1056.344604492188	349.7494506835938	-544.1453857421875	-998.0389404296875	44.73383712768555	-587.7902221679688	-1054.220458984375	39.5382080078125	-630.8753662109375	-1090.908813476562	38.93018341064453	-518.7486572265625	-1245.130004882812	45.18858337402344	-595.4075927734375	
139	1.38	-1152.859130859375	1006.402038574219	-619.6053466796875	-1149.581909179688	1001.393737792969	-794.819580078125	-1128.962646484375	1071.2607421875	-709.8138427734375	-870.6223754882812	1232.399047851562	-718.90087890625	-1137.385375976562	1186.710571289062	-714.8212890625	-1075.748657226562	1428.60986328125	-740.0462036132812	-926.9779052734375	1336.16015625	-727.4423217773438	-1137.65625	1297.935424804688	-659.8154296875	-1093.132568359375	1387.830810546875	-842.2439575195312	-1003.664489746094	1386.854125976562	-895.2066650390625	-1037.043090820312	1268.337646484375	-963.6840209960938	-1038.088623046875	1064.213623046875	-973.7263793945312	-1095.250122070312	1054.5791015625	-909.1262817382812	-966.8424072265625	838.4618530273438	-925.2119750976562	-1004.828430175781	827.8923950195312	-986.3133544921875	-1028.088745117188	959.242919921875	-981.055419921875	-972.6332397460938	654.1155395507812	-925.745849609375	-1004.900695800781	739.234619140625	-983.0413208007812	-949.9744262695312	739.0462646484375	-945.3074340820312	-1014.185241699219	1408.3076171875	-579.4317626953125	-1026.702514648438	1352.03955078125	-511.9561157226562	-1057.361206054688	1090.573120117188	-450.6878967285156	-1085.430786132812	1080.42236328125	-541.3090209960938	-959.1793823242188	864.002197265625	-485.9510803222656	-1006.371948242188	862.8118896484375	-416.0068054199219	-1036.378295898438	1023.11767578125	-434.3870849609375	-954.4850463867188	678.3103637695312	-478.2785339355469	-932.0107421875	749.2215576171875	-461.5878295898438	-984.4743041992188	751.1918334960938	-412.0318298339844	-1033.449951171875	1588.029907226562	-669.2305297851562	-846.4307250976562	1605.195556640625	-768.8644409179688	-857.7890625	1600.325073242188	-676.9713745117188	-1016.12255859375	1585.354614257812	-814.3532104492188	-1083.558837890625	948.3632202148438	-890.24560546875	-1055.73291015625	948.6531372070312	-515.9471435546875	-936.303466796875	945.2614135742188	-585.997802734375	-947.1820068359375	943.8749389648438	-838.1630859375	-1067.149047851562	479.1114501953125	-840.9774169921875	-1055.807006835938	619.9030151367188	-867.107666015625	-1186.29052734375	49.06086349487305	-807.5762329101562	-1132.282470703125	258.8678283691406	-833.779052734375	-981.08984375	38.61371994018555	-739.1038818359375	-1053.297485351562	31.51984977722168	-702.69384765625	-1061.706420898438	44.4218864440918	-814.2874755859375	-1234.79052734375	44.58278274536133	-749.3580322265625	-1037.536865234375	473.0762634277344	-537.3049926757812	-1002.606811523438	734.9337158203125	-515.3016967773438	-1193.481811523438	51.91663360595703	-545.4774169921875	-1052.285034179688	349.0413513183594	-544.4434814453125	-997.944580078125	44.79438781738281	-587.7486572265625	-1054.125732421875	39.6337890625	-630.8728637695312	-1090.7587890625	39.11418151855469	-518.7212524414062	-1244.971069335938	46.83976364135742	-595.4530639648438	
